# xmcd
#
# Track frame offsets:
#	150
#	11670
#	27570
#	42352
#	56020
#	70800
#	84075
#	100352
#	117415
#	136017
#	151617
#	166675
#	182042
#	193985
#	215642
#	232167
#	243907
#
# Disc length: 3422 seconds
#
# Revision: 1
# Processed by: cddbd v1.5.1PL0 Copyright (c) Steve Scherf et al.
# Submitted via: audiograbber 1.83.01
#
DISCID=e40d5c11
DTITLE=Western Lights - Favorites of Ours
DYEAR=1999
DGENRE=Bluegrass
TTITLE0=Hey Good Lookin'
TTITLE1=Back to the Cross
TTITLE2=Little Cabin Home on the Hill
TTITLE3=Faded Love
TTITLE4=In the Gravel Yard
TTITLE5=Trouble in my Mind
TTITLE6=Bury me beneath the WIllow Tree
TTITLE7=Home Sweet Home
TTITLE8=I'll Fly Away
TTITLE9=Tear my Stillhouse Down
TTITLE10=Old Fashioned Love
TTITLE11=Blue Ridge Cabin Home
TTITLE12=If Lonely Was the Wind
TTITLE13=Westphalia Waltz
TTITLE14=Blue Ridge Mountain Girl
TTITLE15=Darkest Hour is Just Before Dawn
TTITLE16=Salt Creek
EXTD=http://webs.lanset.com/fiddlebug/
EXTT0=
EXTT1=
EXTT2=
EXTT3=
EXTT4=
EXTT5=
EXTT6=
EXTT7=
EXTT8=
EXTT9=
EXTT10=
EXTT11=
EXTT12=
EXTT13=
EXTT14=
EXTT15=
EXTT16=
PLAYORDER=
